<?xml version="1.0" encoding="UTF-8"?>
<svg version="1.1" xmlns="http://www.w3.org/2000/svg" width="832" height="1248">
<path d="M0 0 C0.76248047 -0.00386719 1.52496094 -0.00773437 2.31054688 -0.01171875 C3.46973633 0.00568359 3.46973633 0.00568359 4.65234375 0.0234375 C5.42900391 0.01183594 6.20566406 0.00023437 7.00585938 -0.01171875 C7.76705078 -0.00785156 8.52824219 -0.00398438 9.3125 0 C9.99062744 0.00338379 10.66875488 0.00676758 11.36743164 0.01025391 C17.34085607 1.05361816 21.2873337 4.68279838 25.35546875 8.90625 C25.8749408 9.43233856 26.39441284 9.95842712 26.92962646 10.50045776 C28.57369356 12.16776748 30.20717995 13.84496654 31.83984375 15.5234375 C33.48853546 17.20721798 35.13937513 18.88881382 36.79290771 20.56784058 C37.81781734 21.60970458 38.83962273 22.65463339 39.85797119 23.70291138 C42.45935657 26.39620562 42.45935657 26.39620562 45.58984375 28.3984375 C45.58984375 29.0584375 45.58984375 29.7184375 45.58984375 30.3984375 C46.24984375 30.3984375 46.90984375 30.3984375 47.58984375 30.3984375 C54.32209028 38.60336296 53.88949044 48.41680983 53.77734375 58.5859375 C53.77017334 59.8349585 53.76300293 61.08397949 53.75561523 62.37084961 C53.68757702 70.24967507 53.44288417 78.1023706 53.01635742 85.96899414 C52.38875501 98.12540364 52.22173841 110.29997534 51.98266602 122.46899414 C51.78852241 131.96142669 51.47008267 141.43125789 50.96083069 150.91207886 C50.46631306 160.31944117 50.24578654 169.73132411 50.02734375 179.1484375 C49.98395768 180.9362036 49.94033865 182.72396407 49.89648438 184.51171875 C49.79160481 188.80723191 49.6898094 193.10280729 49.58984375 197.3984375 C59.58689923 192.25627846 69.46812566 187.08102118 78.92578125 180.9921875 C83.451797 178.28454172 87.27900549 176.56536483 92.58984375 177.3984375 C97.95313137 180.43131532 102.13948388 184.86773941 106.3828125 189.26171875 C109.65884796 192.43338494 113.25571335 195.16713573 116.87890625 197.9296875 C121.7068176 202.32628688 125.84318671 206.33723534 126.2109375 213.140625 C126.18171317 214.85240719 126.11924375 216.56387419 126.02734375 218.2734375 C126.00285156 219.17731201 125.97835938 220.08118652 125.953125 221.01245117 C125.86712969 223.81047472 125.73445005 226.60287918 125.58984375 229.3984375 C125.52821045 230.74784424 125.52821045 230.74784424 125.46533203 232.12451172 C125.23109336 237.22037872 124.93783168 242.30911399 124.58984375 247.3984375 C127.75786912 245.90129599 130.92396948 244.40012172 134.08984375 242.8984375 C135.04004395 242.44936035 135.99024414 242.0002832 136.96923828 241.53759766 C141.45066554 239.41006658 145.90869042 237.26025442 150.30078125 234.953125 C151.00912109 234.58380859 151.71746094 234.21449219 152.44726562 233.83398438 C153.75446967 233.14684807 155.05575515 232.44828315 156.34960938 231.73632812 C160.59188091 229.51594444 163.83064751 228.93510229 168.58984375 229.3984375 C172.92977718 231.74200155 176.30600257 234.72826207 179.58984375 238.3984375 C179.58984375 239.0584375 179.58984375 239.7184375 179.58984375 240.3984375 C180.47736328 240.7991748 180.47736328 240.7991748 181.3828125 241.20800781 C183.62321718 242.41643848 185.1053395 243.65581364 186.90234375 245.4453125 C187.50304687 246.0434375 188.10375 246.6415625 188.72265625 247.2578125 C189.33882812 247.88171875 189.955 248.505625 190.58984375 249.1484375 C191.20601562 249.756875 191.8221875 250.3653125 192.45703125 250.9921875 C194.21377514 252.75647106 195.9084974 254.56246664 197.58984375 256.3984375 C198.38777344 257.25566406 199.18570312 258.11289062 200.0078125 258.99609375 C202.57283404 264.51247341 202.03911188 270.10477711 201.90234375 276.0859375 C201.88373622 277.52439523 201.86670046 278.96287398 201.85107422 280.40136719 C201.81138681 283.61411413 201.75698294 286.82622332 201.69287109 290.03857422 C201.59862153 294.77403756 201.52967656 299.5095819 201.46490479 304.24552917 C201.16868062 325.54730278 200.70366383 346.85068001 199.88568115 368.13928223 C199.81480868 370.02604712 199.7492058 371.91301919 199.68951416 373.8001709 C199.29953803 385.81622524 197.74259071 396.80001631 194.58984375 408.3984375 C193.97457251 410.83329201 193.37686279 413.27212746 192.77734375 415.7109375 C192.44755992 417.01456243 192.11699683 418.31799085 191.78515625 419.62109375 C190.81145094 423.47584132 189.88231811 427.34038964 188.95703125 431.20703125 C188.35549134 433.68750548 187.75392869 436.16797419 187.15234375 438.6484375 C186.87608154 439.82059814 186.59981934 440.99275879 186.31518555 442.20043945 C183.97017321 451.7962543 181.38072533 462.05814425 174.65234375 469.5859375 C173.87503906 470.483125 173.09773438 471.3803125 172.296875 472.3046875 C171.86842285 472.79066406 171.4399707 473.27664063 170.99853516 473.77734375 C168.20870543 476.98782371 165.53598738 480.29681233 162.83984375 483.5859375 C161.62904873 485.05610693 160.41811022 486.52615821 159.20703125 487.99609375 C153.63545443 494.77052303 148.1020826 501.57566636 142.58984375 508.3984375 C142.02362305 509.09904297 141.45740234 509.79964844 140.87402344 510.52148438 C139.19344987 512.60345976 137.51602022 514.6879211 135.83984375 516.7734375 C135.06906494 517.72887451 135.06906494 517.72887451 134.28271484 518.70361328 C131.69070498 521.88778613 131.69070498 521.88778613 129.58984375 525.3984375 C128.92984375 525.3984375 128.26984375 525.3984375 127.58984375 525.3984375 C127.33203125 525.96046875 127.07421875 526.5225 126.80859375 527.1015625 C125.44814598 529.66548329 123.86195413 531.85070115 122.08984375 534.1484375 C121.48140625 534.94765625 120.87296875 535.746875 120.24609375 536.5703125 C119.69953125 537.17359375 119.15296875 537.776875 118.58984375 538.3984375 C117.92984375 538.3984375 117.26984375 538.3984375 116.58984375 538.3984375 C116.40421875 539.0584375 116.21859375 539.7184375 116.02734375 540.3984375 C112.86495808 546.99819891 108.33137756 551.56440506 101.58984375 554.3984375 C98.07704764 555.16331297 94.53875177 555.60513819 90.97265625 556.046875 C89.9347847 556.18464859 88.89691315 556.32242218 87.82759094 556.46437073 C84.45784339 556.91019862 81.08642971 557.34175495 77.71484375 557.7734375 C73.08262561 558.38141537 68.45142082 558.99691314 63.8203125 559.61328125 C62.1074279 559.83991203 62.1074279 559.83991203 60.35993958 560.07112122 C49.62601098 561.50188327 38.93568251 563.1620124 28.26025391 564.97607422 C27.10960449 565.16572754 25.95895508 565.35538086 24.7734375 565.55078125 C23.80978271 565.71570068 22.84612793 565.88062012 21.85327148 566.05053711 C13.73720878 566.91575663 6.28634532 566.23064261 -1.68359375 564.60546875 C-2.63773163 564.41910355 -3.59186951 564.23273834 -4.57492065 564.04072571 C-7.64671844 563.43918388 -10.7158634 562.82511929 -13.78515625 562.2109375 C-18.01620952 561.37783945 -22.24840191 560.55058755 -26.48046875 559.72265625 C-27.51602905 559.51906494 -28.55158936 559.31547363 -29.61853027 559.10571289 C-39.01414672 557.26367017 -48.43030788 555.57026793 -57.87255859 553.98364258 C-77.27561577 550.6431489 -77.27561577 550.6431489 -82.41015625 544.3984375 C-83.69282116 543.1185192 -84.98543094 541.8485278 -86.28515625 540.5859375 C-89.50546768 537.36562607 -92.53653865 534.03887434 -95.50390625 530.5859375 C-97.71961273 528.04332351 -100.00114217 525.56733552 -102.28515625 523.0859375 C-105.57447863 519.48452579 -108.73033261 515.82536475 -111.78515625 512.0234375 C-115.65169809 507.2278326 -119.75867608 502.72965083 -123.96606445 498.23706055 C-127.87791687 494.03631755 -131.51128993 489.6626454 -135.09765625 485.1796875 C-138.23494541 481.40646135 -141.56914658 477.82959858 -144.95727539 474.28100586 C-148.41015625 470.6104259 -148.41015625 470.6104259 -148.41015625 468.3984375 C-149.07015625 468.3984375 -149.73015625 468.3984375 -150.41015625 468.3984375 C-151.76112999 466.88692204 -153.0394297 465.31030437 -154.28515625 463.7109375 C-157.87995301 459.21164349 -161.60538036 454.91991813 -165.53515625 450.7109375 C-166.56903301 449.60158356 -167.6028878 448.49220913 -168.63671875 447.3828125 C-169.11915039 446.86525391 -169.60158203 446.34769531 -170.09863281 445.81445312 C-172.28021994 443.45905377 -174.40075819 441.05607583 -176.48828125 438.6171875 C-178.09894611 436.75772075 -179.73821519 434.93564603 -181.39453125 433.1171875 C-190.46265923 423.04982052 -193.7135569 416.75364342 -193.80859375 402.92578125 C-192.88656239 394.7630919 -189.13603975 389.12426779 -184.22265625 382.7109375 C-183.61550781 381.90221191 -183.00835937 381.09348633 -182.3828125 380.26025391 C-180.40346267 377.63067559 -178.40905332 375.01318275 -176.41015625 372.3984375 C-175.35900635 371.02196045 -175.35900635 371.02196045 -174.28662109 369.61767578 C-173.22435303 368.22718018 -173.22435303 368.22718018 -172.140625 366.80859375 C-171.43510498 365.88457764 -170.72958496 364.96056152 -170.00268555 364.00854492 C-168.6447426 362.23360211 -167.28313658 360.46145355 -165.91723633 358.69262695 C-162.25743796 353.93073287 -158.83659102 349.1158716 -155.65429688 344.02001953 C-155.24373047 343.48489746 -154.83316406 342.94977539 -154.41015625 342.3984375 C-153.75015625 342.3984375 -153.09015625 342.3984375 -152.41015625 342.3984375 C-152.03890625 341.315625 -152.03890625 341.315625 -151.66015625 340.2109375 C-150.27709134 337.09904146 -148.61892708 334.98585476 -146.41015625 332.3984375 C-142.39370858 327.62282282 -138.57161202 322.74394482 -134.86132812 317.7265625 C-132.65172706 314.79494073 -130.63247644 312.2177992 -127.41015625 310.3984375 C-123.95458271 310.2158789 -120.51748636 310.84477244 -117.41015625 312.3984375 C-117.56746216 311.70271637 -117.72476807 311.00699524 -117.88684082 310.29019165 C-118.44424376 307.21007558 -118.64567055 304.25739273 -118.78320312 301.13037109 C-118.86834167 299.2622023 -118.86834167 299.2622023 -118.9552002 297.35629272 C-119.01310619 296.00315365 -119.07100811 294.65001441 -119.12890625 293.296875 C-119.19193505 291.89545893 -119.25537783 290.49406142 -119.31921387 289.09268188 C-119.4864292 285.4046995 -119.64948374 281.71654671 -119.81121826 278.02832031 C-120.06924321 272.14770727 -120.3312428 266.26728115 -120.59767151 260.387043 C-120.68904445 258.34954011 -120.77721512 256.31191682 -120.8651123 254.27426147 C-121.15885035 247.73098068 -121.56337799 241.22695861 -122.19723511 234.70785522 C-122.64795596 229.8191781 -122.6766068 224.92923908 -122.72265625 220.0234375 C-122.76616211 218.44369141 -122.76616211 218.44369141 -122.81054688 216.83203125 C-122.87219361 209.34906609 -122.87219361 209.34906609 -121.05078125 205.6015625 C-116.91178289 202.14831535 -112.43365474 199.3441784 -107.84765625 196.5234375 C-106.90857422 195.93691406 -105.96949219 195.35039063 -105.00195312 194.74609375 C-103.10244366 193.55971516 -101.20098518 192.37645154 -99.29760742 191.19628906 C-93.79583625 187.77064918 -88.33124047 184.28505939 -82.88696289 180.76879883 C-78.86172431 178.22016215 -75.48402535 176.46112761 -70.5625 177.50390625 C-65.60892093 179.56265327 -61.54760613 183.05040634 -57.41015625 186.3984375 C-55.90388672 187.61660156 -55.90388672 187.61660156 -54.3671875 188.859375 C-52.47778743 190.40184428 -50.59550602 191.95310208 -48.72265625 193.515625 C-46.35769159 195.50215958 -46.35769159 195.50215958 -43.41015625 197.3984375 C-43.29865657 189.91556984 -43.41754438 182.49371697 -43.84765625 175.0234375 C-44.53927969 162.81424239 -44.75770703 150.59016133 -45.01733398 138.36572266 C-45.19743966 130.1947577 -45.45407063 122.04002273 -45.8984375 113.87890625 C-46.51636234 102.36304721 -46.79181823 90.84211439 -47.02270508 79.31274414 C-47.0730846 76.89173743 -47.12850385 74.47083084 -47.1887207 72.05004883 C-47.2771195 68.49575018 -47.3511375 64.94140768 -47.421875 61.38671875 C-47.46546394 59.77873161 -47.46546394 59.77873161 -47.50993347 58.13825989 C-47.70980505 46.15493435 -45.5194777 37.80110106 -37.29150391 28.87573242 C-36.14393327 27.7020585 -34.98782252 26.53668651 -33.82421875 25.37890625 C-33.2042099 24.75365555 -32.58420105 24.12840485 -31.94540405 23.48420715 C-30.64314807 22.17557488 -29.33707176 20.87073403 -28.02734375 19.56958008 C-26.03497691 17.58575893 -24.06205378 15.58391609 -22.08984375 13.58007812 C-20.81493358 12.30355643 -19.53892833 11.0281273 -18.26171875 9.75390625 C-17.67919342 9.16014694 -17.09666809 8.56638763 -16.49649048 7.95463562 C-11.76961995 3.30639573 -6.9012046 0.03437915 0 0 Z " fill="#F8F8F8" transform="translate(412.41015625,340.6015625)"/>
<path d="M0 0 C0.76248047 -0.00386719 1.52496094 -0.00773437 2.31054688 -0.01171875 C3.46973633 0.00568359 3.46973633 0.00568359 4.65234375 0.0234375 C5.42900391 0.01183594 6.20566406 0.00023437 7.00585938 -0.01171875 C7.76705078 -0.00785156 8.52824219 -0.00398438 9.3125 0 C9.99062744 0.00338379 10.66875488 0.00676758 11.36743164 0.01025391 C17.34085607 1.05361816 21.2873337 4.68279838 25.35546875 8.90625 C25.8749408 9.43233856 26.39441284 9.95842712 26.92962646 10.50045776 C28.57369356 12.16776748 30.20717995 13.84496654 31.83984375 15.5234375 C33.48853546 17.20721798 35.13937513 18.88881382 36.79290771 20.56784058 C37.81781734 21.60970458 38.83962273 22.65463339 39.85797119 23.70291138 C42.45935657 26.39620562 42.45935657 26.39620562 45.58984375 28.3984375 C45.58984375 29.0584375 45.58984375 29.7184375 45.58984375 30.3984375 C46.24984375 30.3984375 46.90984375 30.3984375 47.58984375 30.3984375 C54.32209028 38.60336296 53.88949044 48.41680983 53.77734375 58.5859375 C53.77017334 59.8349585 53.76300293 61.08397949 53.75561523 62.37084961 C53.68757702 70.24967507 53.44288417 78.1023706 53.01635742 85.96899414 C52.38875501 98.12540364 52.22173841 110.29997534 51.98266602 122.46899414 C51.78852241 131.96142669 51.47008267 141.43125789 50.96083069 150.91207886 C50.46631306 160.31944117 50.24578654 169.73132411 50.02734375 179.1484375 C49.98395768 180.9362036 49.94033865 182.72396407 49.89648438 184.51171875 C49.79160481 188.80723191 49.6898094 193.10280729 49.58984375 197.3984375 C59.58689923 192.25627846 69.46812566 187.08102118 78.92578125 180.9921875 C83.451797 178.28454172 87.27900549 176.56536483 92.58984375 177.3984375 C97.95313137 180.43131532 102.13948388 184.86773941 106.3828125 189.26171875 C109.65884796 192.43338494 113.25571335 195.16713573 116.87890625 197.9296875 C121.7068176 202.32628688 125.84318671 206.33723534 126.2109375 213.140625 C126.18171317 214.85240719 126.11924375 216.56387419 126.02734375 218.2734375 C126.00285156 219.17731201 125.97835938 220.08118652 125.953125 221.01245117 C125.86712969 223.81047472 125.73445005 226.60287918 125.58984375 229.3984375 C125.52821045 230.74784424 125.52821045 230.74784424 125.46533203 232.12451172 C125.23109336 237.22037872 124.93783168 242.30911399 124.58984375 247.3984375 C127.75786912 245.90129599 130.92396948 244.40012172 134.08984375 242.8984375 C135.04004395 242.44936035 135.99024414 242.0002832 136.96923828 241.53759766 C141.45066554 239.41006658 145.90869042 237.26025442 150.30078125 234.953125 C151.00912109 234.58380859 151.71746094 234.21449219 152.44726562 233.83398438 C153.75446967 233.14684807 155.05575515 232.44828315 156.34960938 231.73632812 C160.59188091 229.51594444 163.83064751 228.93510229 168.58984375 229.3984375 C172.92977718 231.74200155 176.30600257 234.72826207 179.58984375 238.3984375 C179.58984375 239.0584375 179.58984375 239.7184375 179.58984375 240.3984375 C180.47736328 240.7991748 180.47736328 240.7991748 181.3828125 241.20800781 C183.62321718 242.41643848 185.1053395 243.65581364 186.90234375 245.4453125 C187.50304687 246.0434375 188.10375 246.6415625 188.72265625 247.2578125 C189.33882812 247.88171875 189.955 248.505625 190.58984375 249.1484375 C191.20601562 249.756875 191.8221875 250.3653125 192.45703125 250.9921875 C194.21377514 252.75647106 195.9084974 254.56246664 197.58984375 256.3984375 C198.38777344 257.25566406 199.18570312 258.11289062 200.0078125 258.99609375 C202.57283404 264.51247341 202.03911188 270.10477711 201.90234375 276.0859375 C201.88373622 277.52439523 201.86670046 278.96287398 201.85107422 280.40136719 C201.81138681 283.61411413 201.75698294 286.82622332 201.69287109 290.03857422 C201.59862153 294.77403756 201.52967656 299.5095819 201.46490479 304.24552917 C201.16868062 325.54730278 200.70366383 346.85068001 199.88568115 368.13928223 C199.81480868 370.02604712 199.7492058 371.91301919 199.68951416 373.8001709 C199.29953803 385.81622524 197.74259071 396.80001631 194.58984375 408.3984375 C193.97457251 410.83329201 193.37686279 413.27212746 192.77734375 415.7109375 C192.44755992 417.01456243 192.11699683 418.31799085 191.78515625 419.62109375 C190.81145094 423.47584132 189.88231811 427.34038964 188.95703125 431.20703125 C188.35549134 433.68750548 187.75392869 436.16797419 187.15234375 438.6484375 C186.87608154 439.82059814 186.59981934 440.99275879 186.31518555 442.20043945 C183.97017321 451.7962543 181.38072533 462.05814425 174.65234375 469.5859375 C173.87503906 470.483125 173.09773438 471.3803125 172.296875 472.3046875 C171.86842285 472.79066406 171.4399707 473.27664063 170.99853516 473.77734375 C168.20870543 476.98782371 165.53598738 480.29681233 162.83984375 483.5859375 C161.62904873 485.05610693 160.41811022 486.52615821 159.20703125 487.99609375 C153.63545443 494.77052303 148.1020826 501.57566636 142.58984375 508.3984375 C142.02362305 509.09904297 141.45740234 509.79964844 140.87402344 510.52148438 C139.19344987 512.60345976 137.51602022 514.6879211 135.83984375 516.7734375 C135.06906494 517.72887451 135.06906494 517.72887451 134.28271484 518.70361328 C131.69070498 521.88778613 131.69070498 521.88778613 129.58984375 525.3984375 C128.92984375 525.3984375 128.26984375 525.3984375 127.58984375 525.3984375 C127.33203125 525.96046875 127.07421875 526.5225 126.80859375 527.1015625 C125.44814598 529.66548329 123.86195413 531.85070115 122.08984375 534.1484375 C121.48140625 534.94765625 120.87296875 535.746875 120.24609375 536.5703125 C119.69953125 537.17359375 119.15296875 537.776875 118.58984375 538.3984375 C117.92984375 538.3984375 117.26984375 538.3984375 116.58984375 538.3984375 C116.40421875 539.0584375 116.21859375 539.7184375 116.02734375 540.3984375 C112.86495808 546.99819891 108.33137756 551.56440506 101.58984375 554.3984375 C98.07704764 555.16331297 94.53875177 555.60513819 90.97265625 556.046875 C89.9347847 556.18464859 88.89691315 556.32242218 87.82759094 556.46437073 C84.45784339 556.91019862 81.08642971 557.34175495 77.71484375 557.7734375 C73.08262561 558.38141537 68.45142082 558.99691314 63.8203125 559.61328125 C62.1074279 559.83991203 62.1074279 559.83991203 60.35993958 560.07112122 C49.62601098 561.50188327 38.93568251 563.1620124 28.26025391 564.97607422 C27.10960449 565.16572754 25.95895508 565.35538086 24.7734375 565.55078125 C23.80978271 565.71570068 22.84612793 565.88062012 21.85327148 566.05053711 C13.73720878 566.91575663 6.28634532 566.23064261 -1.68359375 564.60546875 C-2.63773163 564.41910355 -3.59186951 564.23273834 -4.57492065 564.04072571 C-7.64671844 563.43918388 -10.7158634 562.82511929 -13.78515625 562.2109375 C-18.01620952 561.37783945 -22.24840191 560.55058755 -26.48046875 559.72265625 C-27.51602905 559.51906494 -28.55158936 559.31547363 -29.61853027 559.10571289 C-39.01414672 557.26367017 -48.43030788 555.57026793 -57.87255859 553.98364258 C-77.27561577 550.6431489 -77.27561577 550.6431489 -82.41015625 544.3984375 C-83.69282116 543.1185192 -84.98543094 541.8485278 -86.28515625 540.5859375 C-89.50546768 537.36562607 -92.53653865 534.03887434 -95.50390625 530.5859375 C-97.71961273 528.04332351 -100.00114217 525.56733552 -102.28515625 523.0859375 C-105.57447863 519.48452579 -108.73033261 515.82536475 -111.78515625 512.0234375 C-115.65169809 507.2278326 -119.75867608 502.72965083 -123.96606445 498.23706055 C-127.87791687 494.03631755 -131.51128993 489.6626454 -135.09765625 485.1796875 C-138.23494541 481.40646135 -141.56914658 477.82959858 -144.95727539 474.28100586 C-148.41015625 470.6104259 -148.41015625 470.6104259 -148.41015625 468.3984375 C-149.07015625 468.3984375 -149.73015625 468.3984375 -150.41015625 468.3984375 C-151.76112999 466.88692204 -153.0394297 465.31030437 -154.28515625 463.7109375 C-157.87995301 459.21164349 -161.60538036 454.91991813 -165.53515625 450.7109375 C-166.56903301 449.60158356 -167.6028878 448.49220913 -168.63671875 447.3828125 C-169.11915039 446.86525391 -169.60158203 446.34769531 -170.09863281 445.81445312 C-172.28021994 443.45905377 -174.40075819 441.05607583 -176.48828125 438.6171875 C-178.09894611 436.75772075 -179.73821519 434.93564603 -181.39453125 433.1171875 C-190.46265923 423.04982052 -193.7135569 416.75364342 -193.80859375 402.92578125 C-192.88656239 394.7630919 -189.13603975 389.12426779 -184.22265625 382.7109375 C-183.61550781 381.90221191 -183.00835937 381.09348633 -182.3828125 380.26025391 C-180.40346267 377.63067559 -178.40905332 375.01318275 -176.41015625 372.3984375 C-175.35900635 371.02196045 -175.35900635 371.02196045 -174.28662109 369.61767578 C-173.22435303 368.22718018 -173.22435303 368.22718018 -172.140625 366.80859375 C-171.43510498 365.88457764 -170.72958496 364.96056152 -170.00268555 364.00854492 C-168.6447426 362.23360211 -167.28313658 360.46145355 -165.91723633 358.69262695 C-162.25743796 353.93073287 -158.83659102 349.1158716 -155.65429688 344.02001953 C-155.24373047 343.48489746 -154.83316406 342.94977539 -154.41015625 342.3984375 C-153.75015625 342.3984375 -153.09015625 342.3984375 -152.41015625 342.3984375 C-152.03890625 341.315625 -152.03890625 341.315625 -151.66015625 340.2109375 C-150.27709134 337.09904146 -148.61892708 334.98585476 -146.41015625 332.3984375 C-142.39370858 327.62282282 -138.57161202 322.74394482 -134.86132812 317.7265625 C-132.65172706 314.79494073 -130.63247644 312.2177992 -127.41015625 310.3984375 C-123.95458271 310.2158789 -120.51748636 310.84477244 -117.41015625 312.3984375 C-117.56746216 311.70271637 -117.72476807 311.00699524 -117.88684082 310.29019165 C-118.44424376 307.21007558 -118.64567055 304.25739273 -118.78320312 301.13037109 C-118.86834167 299.2622023 -118.86834167 299.2622023 -118.9552002 297.35629272 C-119.01310619 296.00315365 -119.07100811 294.65001441 -119.12890625 293.296875 C-119.19193505 291.89545893 -119.25537783 290.49406142 -119.31921387 289.09268188 C-119.4864292 285.4046995 -119.64948374 281.71654671 -119.81121826 278.02832031 C-120.06924321 272.14770727 -120.3312428 266.26728115 -120.59767151 260.387043 C-120.68904445 258.34954011 -120.77721512 256.31191682 -120.8651123 254.27426147 C-121.15885035 247.73098068 -121.56337799 241.22695861 -122.19723511 234.70785522 C-122.64795596 229.8191781 -122.6766068 224.92923908 -122.72265625 220.0234375 C-122.76616211 218.44369141 -122.76616211 218.44369141 -122.81054688 216.83203125 C-122.87219361 209.34906609 -122.87219361 209.34906609 -121.05078125 205.6015625 C-116.91178289 202.14831535 -112.43365474 199.3441784 -107.84765625 196.5234375 C-106.90857422 195.93691406 -105.96949219 195.35039063 -105.00195312 194.74609375 C-103.10244366 193.55971516 -101.20098518 192.37645154 -99.29760742 191.19628906 C-93.79583625 187.77064918 -88.33124047 184.28505939 -82.88696289 180.76879883 C-78.86172431 178.22016215 -75.48402535 176.46112761 -70.5625 177.50390625 C-65.60892093 179.56265327 -61.54760613 183.05040634 -57.41015625 186.3984375 C-55.90388672 187.61660156 -55.90388672 187.61660156 -54.3671875 188.859375 C-52.47778743 190.40184428 -50.59550602 191.95310208 -48.72265625 193.515625 C-46.35769159 195.50215958 -46.35769159 195.50215958 -43.41015625 197.3984375 C-43.29865657 189.91556984 -43.41754438 182.49371697 -43.84765625 175.0234375 C-44.53927969 162.81424239 -44.75770703 150.59016133 -45.01733398 138.36572266 C-45.19743966 130.1947577 -45.45407063 122.04002273 -45.8984375 113.87890625 C-46.51636234 102.36304721 -46.79181823 90.84211439 -47.02270508 79.31274414 C-47.0730846 76.89173743 -47.12850385 74.47083084 -47.1887207 72.05004883 C-47.2771195 68.49575018 -47.3511375 64.94140768 -47.421875 61.38671875 C-47.46546394 59.77873161 -47.46546394 59.77873161 -47.50993347 58.13825989 C-47.70980505 46.15493435 -45.5194777 37.80110106 -37.29150391 28.87573242 C-36.14393327 27.7020585 -34.98782252 26.53668651 -33.82421875 25.37890625 C-33.2042099 24.75365555 -32.58420105 24.12840485 -31.94540405 23.48420715 C-30.64314807 22.17557488 -29.33707176 20.87073403 -28.02734375 19.56958008 C-26.03497691 17.58575893 -24.06205378 15.58391609 -22.08984375 13.58007812 C-20.81493358 12.30355643 -19.53892833 11.0281273 -18.26171875 9.75390625 C-17.67919342 9.16014694 -17.09666809 8.56638763 -16.49649048 7.95463562 C-11.76961995 3.30639573 -6.9012046 0.03437915 0 0 Z M-11.53515625 17.4609375 C-12.57376057 18.66818327 -13.61411421 19.87392639 -14.65625 21.078125 C-15.1291748 21.65788086 -15.60209961 22.23763672 -16.08935547 22.83496094 C-17.75750835 24.80960993 -19.60416704 26.44517302 -21.59765625 28.0859375 C-24.73482431 30.78162775 -27.78821661 33.54685585 -30.78515625 36.3984375 C-31.61789062 37.1821875 -32.450625 37.9659375 -33.30859375 38.7734375 C-37.33136824 43.79816697 -37.66297561 49.36917846 -37.57177734 55.625 C-37.56369238 56.31212067 -37.55560741 56.99924133 -37.54727745 57.70718384 C-37.51557995 59.93811966 -37.46564965 62.16797278 -37.41015625 64.3984375 C-37.38363354 65.51116028 -37.38363354 65.51116028 -37.35657501 66.6463623 C-37.21334727 72.35659225 -37.0206016 78.06483244 -36.82421875 83.7734375 C-36.76211281 85.64031571 -36.70029188 87.50720341 -36.63873291 89.37409973 C-36.50786387 93.33185327 -36.37559646 97.28955623 -36.24212646 101.2472229 C-35.89063069 111.67632053 -35.54806113 122.10571179 -35.20703125 132.53515625 C-35.15547945 134.10884759 -35.15547945 134.10884759 -35.1028862 135.71433067 C-34.63154917 150.13541943 -34.19304033 164.5570111 -33.80078125 178.98046875 C-33.77808041 179.81340328 -33.75537956 180.64633781 -33.73199081 181.50451279 C-33.51967671 189.31504297 -33.31236539 197.12568841 -33.11280632 204.93655491 C-32.65020322 223.44885293 -32.65020322 223.44885293 -31.63330078 241.93676758 C-31.26021056 247.72456442 -31.11868863 253.5179054 -30.96432495 259.31494141 C-30.65044192 271.0256961 -30.19697791 282.70851565 -29.41015625 294.3984375 C-33.70015625 294.7284375 -37.99015625 295.0584375 -42.41015625 295.3984375 C-42.39275391 293.02978516 -42.39275391 293.02978516 -42.375 290.61328125 C-42.36561683 288.52083452 -42.3565172 286.42838651 -42.34765625 284.3359375 C-42.33927734 283.29759766 -42.33089844 282.25925781 -42.32226562 281.18945312 C-42.31904297 280.17431641 -42.31582031 279.15917969 -42.3125 278.11328125 C-42.30726318 277.18636475 -42.30202637 276.25944824 -42.29663086 275.30444336 C-42.42761572 271.95151262 -42.93372292 268.71945804 -43.41015625 265.3984375 C-43.59466398 262.71620093 -43.75272918 260.04411016 -43.875 257.359375 C-43.95136532 255.80312678 -44.02803688 254.24689356 -44.10498047 252.69067383 C-44.14395447 251.88675201 -44.18292847 251.0828302 -44.2230835 250.25454712 C-44.34879832 247.75069085 -44.48683654 245.24782387 -44.62939453 242.74487305 C-44.67652588 241.91697769 -44.72365723 241.08908234 -44.7722168 240.23609924 C-44.86644453 238.58199505 -44.96068274 236.92789144 -45.05493164 235.27378845 C-45.30621815 230.72968112 -45.47666061 226.19543774 -45.5625 221.64453125 C-45.75110556 212.37392646 -45.75110556 212.37392646 -49.75 204.2734375 C-52.28815824 202.08548506 -54.80956213 200.25565975 -57.67089844 198.51953125 C-59.54128685 197.31391311 -61.21087148 195.98123118 -62.91796875 194.5546875 C-63.49119873 194.07990967 -64.06442871 193.60513184 -64.6550293 193.1159668 C-65.75888172 192.19967216 -66.85947736 191.27943557 -67.95629883 190.35473633 C-71.02663322 187.91063319 -71.02663322 187.91063319 -74.8112793 187.59667969 C-77.70090508 188.48813399 -79.4971253 189.66490396 -81.90234375 191.48828125 C-85.76656369 194.30364149 -89.68245761 196.75604863 -93.85546875 199.08984375 C-94.95117188 199.72599609 -96.046875 200.36214844 -97.17578125 201.01757812 C-99.43309091 202.32340551 -101.71268624 203.59137912 -104.01171875 204.82226562 C-107.32966927 206.79921115 -109.79459677 208.55652071 -112.41015625 211.3984375 C-113.06226611 214.40910229 -113.06226611 214.40910229 -112.78442383 217.70654297 C-112.73791687 218.95083572 -112.69140991 220.19512848 -112.64349365 221.47712708 C-112.56649231 222.77115952 -112.48949097 224.06519196 -112.41015625 225.3984375 C-112.35265198 226.62821823 -112.29514771 227.85799896 -112.23590088 229.12504578 C-112.07082427 232.40287304 -111.88040072 235.67786921 -111.67347527 238.95329094 C-111.43325078 242.77176977 -111.20940416 246.59121632 -110.98486328 250.41064453 C-110.93722178 251.21813991 -110.88958029 252.02563528 -110.84049511 252.85760021 C-110.28495744 262.37702147 -109.82586871 271.90091514 -109.375 281.42578125 C-109.33268879 282.31925892 -109.29037758 283.21273659 -109.24678421 284.13328934 C-109.0313347 288.69433578 -108.81764884 293.25546209 -108.60522461 297.81665039 C-108.39017383 302.4336464 -108.17207373 307.05049263 -107.95316029 311.6673069 C-107.17246222 328.15468668 -106.4050588 344.63980596 -105.85546875 361.13671875 C-105.55994103 369.99981245 -105.15019504 378.81456608 -104.34765625 387.6484375 C-104.21133789 389.24751953 -104.21133789 389.24751953 -104.07226562 390.87890625 C-103.85769253 393.38602341 -103.63728358 395.8924329 -103.41015625 398.3984375 C-104.07015625 398.3984375 -104.73015625 398.3984375 -105.41015625 398.3984375 C-105.66893555 397.66222168 -105.92771484 396.92600586 -106.19433594 396.16748047 C-107.44207406 393.32574436 -108.88981277 391.47047409 -110.86328125 389.09375 C-115.64445283 382.3976325 -116.23598236 375.20728116 -117.16015625 367.2734375 C-117.4314929 365.16022676 -117.71076579 363.04817011 -117.99079895 360.93609619 C-118.17628654 359.53330758 -118.35866158 358.13010382 -118.53788757 356.72650146 C-119.35658916 350.43039974 -120.50060904 344.2189226 -121.71704102 337.98876953 C-122.71705113 332.8087242 -123.57170336 327.6067096 -124.41015625 322.3984375 C-125.07015625 322.3984375 -125.73015625 322.3984375 -126.41015625 322.3984375 C-127.85750629 323.99193396 -127.85750629 323.99193396 -129.31640625 326.09765625 C-129.8902002 326.88809326 -130.46399414 327.67853027 -131.05517578 328.49291992 C-131.66731934 329.34861572 -132.27946289 330.20431152 -132.91015625 331.0859375 C-134.18773369 332.84712968 -135.4663831 334.60754473 -136.74609375 336.3671875 C-137.37354492 337.23214844 -138.00099609 338.09710937 -138.64746094 338.98828125 C-140.8947643 342.0610484 -143.20267717 345.07726742 -145.53515625 348.0859375 C-149.142663 352.74097476 -152.69715694 357.43101901 -156.22265625 362.1484375 C-159.96772901 367.1564472 -163.72909879 372.15106673 -167.52929688 377.11743164 C-168.65122121 378.58728839 -169.76720129 380.06170288 -170.87695312 381.54077148 C-173.07278666 384.45186352 -175.19839008 387.18736793 -177.78515625 389.765625 C-183.12928576 395.13130342 -183.75233344 401.29146082 -183.80371094 408.60058594 C-183.08425022 418.78980709 -176.49949026 424.21401732 -169.26025391 430.68212891 C-166.79030248 432.9734668 -164.73041862 435.49532247 -162.66015625 438.1484375 C-159.55662849 442.0453483 -156.30347746 445.7536298 -152.91015625 449.3984375 C-149.45847337 453.10698981 -146.1449304 456.88350189 -142.97265625 460.8359375 C-139.12905568 465.61465378 -135.04055461 470.09001437 -130.85180664 474.56225586 C-126.95018955 478.75173276 -123.33690828 483.12016686 -119.75390625 487.5859375 C-116.59579697 491.37566863 -113.23336443 494.95373955 -109.86035156 498.55151367 C-106.64765563 501.99874668 -103.61079775 505.53281026 -100.66015625 509.2109375 C-97.46996574 513.18720013 -94.10374754 516.75545153 -90.44921875 520.30078125 C-87.29712893 523.54344836 -84.50546745 527.05987907 -81.68359375 530.58984375 C-80.93335938 531.51667969 -80.183125 532.44351563 -79.41015625 533.3984375 C-78.78802246 534.2944165 -78.78802246 534.2944165 -78.15332031 535.20849609 C-74.01973522 540.77360698 -70.09302194 541.82149139 -63.41015625 542.8984375 C-61.88829712 543.17953369 -61.88829712 543.17953369 -60.33569336 543.46630859 C-58.02398848 543.89031009 -55.70988923 544.30138317 -53.39404297 544.70214844 C-48.91352281 545.47756592 -44.4454812 546.31693891 -39.9765625 547.15625 C-31.21770967 548.79591429 -22.45421469 550.4079827 -13.68438721 551.98791504 C-12.15367889 552.26422389 -10.62320532 552.54183607 -9.09295654 552.82067871 C6.73529358 556.0258819 6.73529358 556.0258819 22.71484375 555.2109375 C31.4360614 553.68985716 40.18207046 552.50393455 48.96484375 551.3984375 C63.80766224 549.52064005 63.80766224 549.52064005 78.61547852 547.38696289 C82.3893582 546.81481734 86.10924732 546.33169271 89.921875 546.12109375 C96.85296751 545.74746948 96.85296751 545.74746948 102.828125 542.61328125 C104.94871941 539.98339295 106.73738952 537.22403841 108.58984375 534.3984375 C110.68108356 531.70747792 112.85595045 529.08738361 115.02734375 526.4609375 C116.15987333 525.06983952 117.29139904 523.67792362 118.421875 522.28515625 C121.00982785 519.10655027 123.61061204 515.93872452 126.21484375 512.7734375 C129.52669235 508.73636658 132.75471866 504.64118724 135.96484375 500.5234375 C140.49448602 494.71943684 145.19255792 489.08214389 149.96875 483.48046875 C153.14516584 479.75395385 156.27701681 475.99494921 159.33203125 472.16796875 C160.88463754 470.26347419 162.49875701 468.40802593 164.16015625 466.59765625 C172.50314486 456.99699324 174.86487263 446.62839403 177.58984375 434.3984375 C177.94506935 432.88865016 178.30292845 431.37947873 178.6640625 429.87109375 C179.31736511 427.13166272 179.95608786 424.38943966 180.5859375 421.64453125 C181.70593918 416.83068884 182.95355353 412.05192029 184.21484375 407.2734375 C184.42117432 406.49137939 184.62750488 405.70932129 184.84008789 404.90356445 C185.70109086 401.66335473 186.57224637 398.4528655 187.6040802 395.26144409 C188.63506486 391.22122517 188.92731437 387.45994765 188.98461914 383.32128906 C189.00281204 382.54433685 189.02100494 381.76738464 189.03974915 380.96688843 C189.097596 378.40771729 189.14251275 375.84848922 189.1875 373.2890625 C189.22622362 371.48042973 189.26582654 369.67181559 189.30625916 367.86322021 C189.41082208 363.09307591 189.5047348 358.32278302 189.5960083 353.55236816 C189.74236174 346.00826862 189.90540582 338.46449469 190.06624794 330.92069244 C190.1053773 329.08475412 190.14430668 327.24881152 190.1830349 325.41286469 C190.4207297 314.18698583 190.68542935 302.96372023 191.08203125 291.7421875 C191.13478966 290.1697226 191.13478966 290.1697226 191.18861389 288.56549072 C191.40602783 282.86763539 191.92652098 277.30297965 192.65234375 271.6484375 C192.66315832 266.57099841 191.5986013 264.02397822 188.26953125 260.34765625 C184.91572424 257.0339409 181.34117525 254.05272613 177.65966797 251.11279297 C173.45451534 247.62982744 169.62162646 243.94611156 166.58984375 239.3984375 C162.0634466 240.0203852 158.35300816 241.82764467 154.33984375 243.8984375 C153.74171875 244.20007813 153.14359375 244.50171875 152.52734375 244.8125 C151.14001081 245.51726513 149.76549639 246.24751817 148.40063477 246.99487305 C146.06338653 248.16197459 143.78940526 249.10073869 141.35522461 250.03051758 C133.27531006 253.1708834 133.27531006 253.1708834 127.55194092 259.31170654 C125.81328241 264.76780128 125.78191966 270.4074401 125.65234375 276.0859375 C125.55304163 277.84502112 125.44590195 279.60367927 125.33105469 281.36181641 C125.11543543 284.81172456 124.940092 288.25946779 124.80322266 291.71337891 C124.55928639 297.59287969 123.96438472 303.42393745 123.33984375 309.2734375 C122.74069037 315.34410475 122.51705663 321.29645058 122.58984375 327.3984375 C121.89117188 327.1096875 121.1925 326.8209375 120.47265625 326.5234375 C119.56257813 326.1521875 118.6525 325.7809375 117.71484375 325.3984375 C116.80992187 325.0271875 115.905 324.6559375 114.97265625 324.2734375 C112.70000517 323.28353524 112.70000517 323.28353524 110.58984375 323.3984375 C110.63773544 322.58507431 110.68562714 321.77171112 110.73497009 320.93370056 C111.19260603 313.15612485 111.64851909 305.37845074 112.10263729 297.60066891 C112.33599379 293.60490067 112.5699486 289.6091696 112.80541992 285.61352539 C113.7749014 269.15579897 114.72902993 252.7022554 115.38256836 236.22827148 C115.55888843 231.82561694 115.81664879 227.42993653 116.09483337 223.03262329 C116.47583424 215.40194465 116.47583424 215.40194465 113.86328125 208.40234375 C111.5786116 206.07449306 109.26776096 204.25334427 106.58984375 202.3984375 C105.22199507 201.22672354 103.86700971 200.03977251 102.52734375 198.8359375 C101.88023437 198.28808594 101.233125 197.74023438 100.56640625 197.17578125 C97.68332763 194.5832896 95.1170582 191.70493633 92.546875 188.8046875 C90.67788696 187.1670321 90.67788696 187.1670321 88.2734375 187.43359375 C84.13643593 188.92098733 80.59387652 191.2259412 76.90161133 193.5625 C73.30892034 195.81307139 69.74993313 197.84195228 65.8984375 199.62109375 C65.12790039 200.00209229 64.35736328 200.38309082 63.56347656 200.77563477 C62.08285716 201.50282065 60.57780705 202.18295972 59.04980469 202.80444336 C56.5453923 204.08820538 55.24411694 205.10290261 53.58984375 207.3984375 C52.34324441 212.13939602 52.02832708 216.82624481 51.75143433 221.70904541 C51.57847523 224.58764668 51.34328191 227.45644773 51.09594727 230.32958984 C50.62457462 235.84962917 50.19696142 241.37196821 49.78491211 246.89672852 C49.5300733 250.29949085 49.26637232 253.70148602 49.00195312 257.10351562 C47.82664183 272.5269209 47.0815539 287.938656 46.58984375 303.3984375 C41.14484375 301.9134375 41.14484375 301.9134375 35.58984375 300.3984375 C35.65977539 298.6359668 35.72970703 296.87349609 35.80175781 295.05761719 C37.60511639 249.27500248 39.15198695 203.48421799 40.5731076 157.68831038 C40.72950931 152.65828088 40.88953708 147.62837533 41.05114746 142.59851074 C42.31469776 103.39409623 42.31469776 103.39409623 42.87456703 64.1747818 C42.88513632 62.23427522 42.90026181 60.29378722 42.92030907 58.35335541 C42.94477709 55.73174932 42.94913462 53.11095847 42.9465332 50.48925781 C42.96110408 49.35549587 42.96110408 49.35549587 42.97596931 48.19882965 C42.89898474 38.50585822 35.53562561 32.51553837 29.24389648 25.9128418 C28.10751667 24.70340784 26.98946753 23.47646217 25.89135742 22.23217773 C20.2394524 15.84266129 15.41607171 10.84967742 6.55723572 10.2260437 C-1.04479582 10.22769169 -6.80251973 11.05703702 -11.53515625 17.4609375 Z " fill="#080808" transform="translate(412.41015625,340.6015625)"/>
<path d="" fill="#FFFFFF" transform="translate(0,0)"/>
<path d="" fill="#FFFFFF" transform="translate(0,0)"/>
</svg>
